<svg width="40" height="40" viewBox="0 0 40 40" fill="none" xmlns="http://www.w3.org/2000/svg">
<g clip-path="url(#clip0_69:14)">
<path d="M18.3496 17.864L7.48916 36.6468L5.23596 34.542C5.27156 34.4748 5.30196 34.4124 5.33636 34.3524C7.61263 30.3668 9.88916 26.3815 12.166 22.3964C12.4936 21.8224 12.2084 21.0736 11.586 20.8764C11.5058 20.8515 11.4223 20.8388 11.3384 20.8388C8.0277 20.8454 4.71676 20.8537 1.40556 20.8636C1.00556 20.8636 0.602365 20.8704 0.201165 20.8844C0.0543646 20.8896 0.0139646 20.8384 0.0143646 20.6952C0.0143646 19.8268 0.0143646 18.9584 -3.54471e-05 18.0904C-0.00283545 17.9068 0.0619646 17.8604 0.235165 17.8608C2.01676 17.8653 3.79863 17.8662 5.58076 17.8636H18.3496V17.864Z" fill="#FF6600"/>
<path d="M12.6 39.4848L9.97681 38.2048L19.9956 21.012L30.18 38.0852L27.47 39.4996C27.3584 39.3132 27.2556 39.1428 27.1544 38.9712C25.0696 35.4288 22.9869 31.8849 20.9064 28.3396C20.554 27.736 19.5616 27.7204 19.194 28.3452C17.0436 31.9988 14.8856 35.6482 12.72 39.2936C12.6852 39.3536 12.6468 39.412 12.6 39.4848Z" fill="#FF6600"/>
<path d="M32.5248 36.59L21.84 17.88H22.062L39.1272 17.8836C39.3604 17.8836 39.5936 17.896 39.8264 17.8956C39.9464 17.8956 39.9992 17.9336 39.9984 18.0648C39.9944 18.9392 39.9944 19.8137 39.9984 20.6884C39.9984 20.82 39.95 20.8532 39.828 20.8524C37.516 20.8441 35.2037 20.8369 32.8912 20.8308C31.4852 20.826 30.0796 20.814 28.6736 20.8148C28.066 20.8148 27.63 21.3924 27.7308 22.0504C27.7496 22.1708 27.7903 22.2867 27.8508 22.3924C30.1489 26.3657 32.4504 30.3359 34.7552 34.3028C34.8452 34.458 34.8284 34.5372 34.6964 34.6532C34.0392 35.2304 33.3924 35.8192 32.742 36.4032C32.68 36.4592 32.6148 36.5128 32.5248 36.59Z" fill="#FF6600"/>
<path d="M24.426 4.79398C24.4372 7.20838 22.428 9.08998 20.124 9.08238C17.884 9.07478 15.838 7.26158 15.844 4.74798C15.8484 2.39598 17.7956 0.493982 20.1912 0.500382C22.52 0.506782 24.4304 2.43998 24.426 4.79398Z" fill="#FF6600"/>
<path d="M25.756 14.3444V14.114C25.756 13.0316 25.76 11.9496 25.7508 10.8676C25.7508 10.6824 25.8092 10.642 25.982 10.6444C26.6296 10.6536 27.278 10.652 27.9256 10.6444C28.0712 10.6444 28.1156 10.6892 28.1156 10.8328C28.1119 12.563 28.1119 14.293 28.1156 16.0228C28.1156 16.17 28.0756 16.2256 27.918 16.2228C26.946 16.2156 25.974 16.2228 25.002 16.2132C24.9035 16.2072 24.8108 16.1644 24.7424 16.0932C23.7675 14.9866 22.7949 13.8755 21.8248 12.76C21.7408 12.6636 21.654 12.57 21.5308 12.4336C21.5204 12.564 21.5088 12.6424 21.5088 12.7212C21.5088 13.8031 21.5088 14.8851 21.5088 15.9672C21.5088 16.2208 21.5088 16.2208 21.2504 16.2208C20.622 16.2208 19.9932 16.2136 19.3652 16.2252C19.1796 16.2288 19.1412 16.1672 19.142 15.9944C19.1481 14.2838 19.1481 12.5731 19.142 10.8624C19.142 10.694 19.182 10.6416 19.3568 10.6432C20.2768 10.652 21.1968 10.65 22.1168 10.6432C22.177 10.6409 22.237 10.6528 22.2918 10.6779C22.3466 10.7029 22.3947 10.7405 22.4324 10.7876C23.4332 11.8919 24.4361 12.994 25.4412 14.094C25.5264 14.1876 25.6152 14.2776 25.7024 14.3692L25.756 14.3444Z" fill="#FF6600"/>
<path d="M9.52406 12.1288C9.46926 12.1324 9.41246 12.1388 9.35606 12.1392C8.71606 12.1392 8.07326 12.1392 7.43166 12.1428C7.31846 12.1428 7.24006 12.1312 7.20126 11.998C7.13806 11.7804 6.94526 11.6736 6.74846 11.6456C6.34716 11.5867 5.94241 11.5545 5.53686 11.5492C5.32366 11.5472 5.10046 11.608 4.90086 11.6872C4.80286 11.7272 4.69126 11.8712 4.68886 11.9704C4.68646 12.0696 4.79086 12.2316 4.88486 12.266C5.18201 12.3713 5.48694 12.4531 5.79686 12.5108C6.62606 12.6752 7.46326 12.8044 8.28686 12.9908C8.61988 13.0718 8.93622 13.2103 9.22166 13.4C10.0157 13.92 10.0269 14.918 9.26526 15.484C8.81206 15.8208 8.28166 15.964 7.73766 16.0632C6.67246 16.2548 5.59766 16.2672 4.52606 16.168C4.02516 16.1193 3.53128 16.0146 3.05366 15.856C2.42966 15.6508 2.03126 15.216 1.99006 14.5184C1.98166 14.3768 2.02246 14.3184 2.16966 14.3184C2.84966 14.3219 3.52966 14.3219 4.20966 14.3184C4.32446 14.3184 4.38486 14.3456 4.39046 14.4804C4.40166 14.7292 4.56206 14.8724 4.78046 14.964C5.18566 15.1348 5.61446 15.1364 6.04046 15.1276C6.28406 15.1228 6.52766 15.0784 6.76886 15.0376C6.86388 15.0176 6.95453 14.9806 7.03646 14.9284C7.32086 14.7604 7.32246 14.4368 7.01846 14.3124C6.74726 14.2012 6.45166 14.1416 6.16206 14.084C5.28206 13.9088 4.39886 13.7556 3.52206 13.5732C3.15231 13.4979 2.80763 13.3303 2.52006 13.086C1.95326 12.6036 1.92926 11.7816 2.47246 11.2728C2.86006 10.9096 3.34806 10.7584 3.85126 10.6488C4.60166 10.486 5.36406 10.4664 6.12806 10.4748C6.80206 10.4824 7.47646 10.5068 8.12806 10.6944C8.43689 10.7835 8.73253 10.9132 9.00726 11.08C9.38446 11.312 9.55286 11.7036 9.52406 12.1288Z" fill="#FF6600"/>
<path d="M38.894 16.2268H37.4684C37.0928 16.2268 36.7172 16.2216 36.342 16.2296C36.2092 16.2324 36.1284 16.1928 36.0668 16.0696C35.9457 15.8263 35.8122 15.5895 35.6668 15.36C35.6389 15.3209 35.6032 15.2882 35.5618 15.2638C35.5205 15.2395 35.4745 15.2242 35.4268 15.2188C34.2268 15.21 33.0308 15.2144 31.8328 15.21C31.7786 15.206 31.7245 15.2187 31.6777 15.2463C31.6309 15.2738 31.5936 15.315 31.5708 15.3644C31.43 15.6116 31.2852 15.8572 31.1308 16.0952C31.0908 16.1548 31.0056 16.2184 30.9404 16.2192C30.1892 16.2276 29.438 16.2244 28.6868 16.2232C28.6605 16.2185 28.6348 16.2113 28.61 16.2016C28.6528 16.1356 28.69 16.0776 28.7272 16.0216C29.9301 14.2882 31.1323 12.5549 32.3336 10.8216C32.4196 10.6972 32.5084 10.6444 32.664 10.646C33.4604 10.6544 34.2568 10.646 35.0532 10.6548C35.1332 10.6548 35.2468 10.7048 35.2892 10.768C36.4777 12.5493 37.6613 14.3344 38.84 16.1232C38.8544 16.1444 38.864 16.168 38.894 16.2268ZM33.7052 11.932L32.4 14.0188H34.9344L33.7052 11.932Z" fill="#FF6600"/>
<path d="M14.4204 16.2208C13.358 16.2208 12.2956 16.2168 11.2332 16.2248C11.06 16.2248 11.0164 16.1772 11.0172 16.0068C11.0231 14.29 11.0231 12.5732 11.0172 10.8564C11.0172 10.678 11.0744 10.6436 11.2388 10.644C13.3122 10.6491 15.3854 10.6491 17.4584 10.644C17.6356 10.644 17.6984 10.6892 17.6856 10.8704C17.6706 11.1101 17.6706 11.3506 17.6856 11.5904C17.6964 11.766 17.6304 11.8096 17.4644 11.8088C16.2644 11.8032 15.0672 11.8056 13.8688 11.806C13.4148 11.806 13.4908 11.7928 13.488 12.1964C13.4844 12.75 13.488 12.7504 14.048 12.7504C15.0848 12.7504 16.1212 12.7544 17.1576 12.7464C17.33 12.7464 17.3844 12.792 17.374 12.964C17.3596 13.2038 17.3596 13.4442 17.374 13.684C17.3848 13.8576 17.326 13.904 17.156 13.9032C16.0288 13.8964 14.9016 13.8996 13.7744 13.8996C13.488 13.8996 13.4876 13.8996 13.4876 14.19C13.4876 14.39 13.4876 14.59 13.4876 14.7924C13.4876 15.044 13.4876 15.0444 13.7492 15.0444H17.578C17.8376 15.0444 17.8376 15.0444 17.838 15.308C17.838 15.5412 17.828 15.7752 17.8416 16.0076C17.8512 16.1756 17.8016 16.2292 17.6272 16.228C16.56 16.2168 15.4896 16.2208 14.4204 16.2208Z" fill="#FF6600"/>
</g>
<defs>
<clipPath id="clip0_69:14">
<rect width="40" height="40" fill="#FF6600"/>
</clipPath>
</defs>
</svg>
